<svg xmlns="http://www.w3.org/2000/svg" xmlns:xlink="http://www.w3.org/1999/xlink" width="1000" zoomAndPan="magnify" viewBox="0 0 750 449.999984" height="600" preserveAspectRatio="xMidYMid meet" version="1.0"><defs><g/></defs><g fill="#ff5055" fill-opacity="0.302"><g transform="translate(36.949935, 188.603247)"><g><path d="M -8.484375 -9.640625 C -2.742188 -22.316406 2.394531 -32.382812 6.9375 -39.84375 C 14.3125 -52.09375 21.976562 -62.929688 29.9375 -72.359375 C 24.03125 -73.378906 18.722656 -73.890625 14.015625 -73.890625 L 19.53125 -89.1875 C 35.644531 -88.675781 49.65625 -86.578125 61.5625 -82.890625 C 66.007812 -81.523438 70.503906 -79.851562 75.046875 -77.875 L 85.078125 -55.390625 C 79.160156 -46.992188 71.597656 -39.734375 62.390625 -33.609375 C 53.179688 -27.484375 43.222656 -22.960938 32.515625 -20.046875 L 24.03125 -32.125 C 17.351562 -20.90625 11.398438 -8.910156 6.171875 3.859375 Z M 25.953125 -35.34375 C 44.035156 -41.59375 57.617188 -50.203125 66.703125 -61.171875 C 58.554688 -65.453125 47.628906 -68.96875 33.921875 -71.71875 L 44.984375 -62.59375 C 38.128906 -53.9375 31.785156 -44.851562 25.953125 -35.34375 Z M 25.953125 -35.34375 "/></g></g></g><g fill="#ff5055" fill-opacity="0.302"><g transform="translate(123.556355, 188.603247)"><g><path d="M 16.0625 -18 C 24.976562 -16.113281 36.375 -14.484375 50.25 -13.109375 L 44.71875 4.75 C 32.976562 3.726562 24.5625 2.742188 19.46875 1.796875 C 14.375 0.859375 10.367188 0.0859375 7.453125 -0.515625 L -7.96875 -14.515625 C 2.488281 -36.285156 17.867188 -60.960938 38.171875 -88.546875 L 51.40625 -75.1875 C 40.1875 -59.757812 28.40625 -40.695312 16.0625 -18 Z M 16.0625 -18 "/></g></g></g><g fill="#ff5055" fill-opacity="0.302"><g transform="translate(189.08939, 188.603247)"><g><path d="M 25.953125 -32.90625 C 16.441406 -20.738281 8.945312 -8.523438 3.46875 3.734375 L -10.53125 -9.25 C -4.96875 -19.707031 2.351562 -30.632812 11.4375 -42.03125 L 3.734375 -46.390625 L 14.78125 -60.28125 L 23.140625 -55.640625 C 33.585938 -66.785156 43.695312 -76.039062 53.46875 -83.40625 L 62.96875 -74.796875 C 64.257812 -80.109375 65.289062 -85.332031 66.0625 -90.46875 L 82.125 -76.59375 C 77.070312 -50.894531 66.832031 -23.347656 51.40625 6.046875 L 36.75 -7.328125 C 39.5 -12.296875 41.472656 -15.9375 42.671875 -18.25 C 37.953125 -23.476562 32.378906 -28.363281 25.953125 -32.90625 Z M 37.140625 -46.015625 C 41.765625 -42.492188 46.003906 -38.679688 49.859375 -34.578125 C 55.085938 -47.597656 58.945312 -59.035156 61.4375 -68.890625 C 53.894531 -62.972656 45.796875 -55.347656 37.140625 -46.015625 Z M 37.140625 -46.015625 "/></g></g></g><g fill="#ff5055" fill-opacity="0.302"><g transform="translate(277.237761, 188.603247)"><g><path d="M 31.484375 -45.359375 C 45.023438 -57.179688 56.9375 -70.460938 67.21875 -85.203125 L 81.609375 -71.453125 C 65.671875 -51.234375 48.960938 -35.8125 31.484375 -25.1875 C 26.773438 -17.90625 22.148438 -7.753906 17.609375 5.265625 L 1.671875 -8.484375 C 5.265625 -17.472656 7.851562 -23.40625 9.4375 -26.28125 C 11.03125 -29.15625 12.679688 -31.960938 14.390625 -34.703125 C 12.421875 -51.835938 14.007812 -71.582031 19.15625 -93.9375 L 36.375 -78.140625 C 33.457031 -66.742188 31.828125 -55.816406 31.484375 -45.359375 Z M 31.484375 -45.359375 "/></g></g></g><g fill="#ff5055" fill-opacity="0.302"><g transform="translate(349.966598, 188.603247)"><g/></g></g><g fill="#ff5055" fill-opacity="0.302"><g transform="translate(396.482197, 188.603247)"><g><path d="M 64.265625 -14.78125 C 82.679688 -29.851562 98.144531 -51.398438 110.65625 -79.421875 L 124.65625 -66.578125 C 118.226562 -51.753906 109.617188 -37.914062 98.828125 -25.0625 C 88.035156 -12.207031 76.34375 -1.835938 63.75 6.046875 L 46.78125 -9 C 47.550781 -11.820312 48.75 -15.929688 50.375 -21.328125 C 43.695312 -13.617188 37.1875 -7.148438 30.84375 -1.921875 C 28.613281 -0.0351562 26.300781 1.847656 23.90625 3.734375 L 4.625 -13.625 C 8.65625 -33.675781 15.765625 -51.96875 25.953125 -68.5 C 21.753906 -66.53125 17.046875 -64.085938 11.828125 -61.171875 L 5.53125 -75.953125 C 14.269531 -80.921875 20.710938 -84.28125 24.859375 -86.03125 C 29.015625 -87.789062 32.640625 -89.1875 35.734375 -90.21875 L 50.125 -75.828125 C 37.875 -56.722656 29.175781 -37.488281 24.03125 -18.125 C 42.019531 -33.195312 59.023438 -55.429688 75.046875 -84.828125 L 88.421875 -72.484375 L 86.109375 -68.234375 C 79.847656 -56.671875 75.4375 -47.632812 72.875 -41.125 C 69.445312 -32.125 66.578125 -23.34375 64.265625 -14.78125 Z M 64.265625 -14.78125 "/></g></g></g><g fill="#ff5055" fill-opacity="0.302"><g transform="translate(521.637485, 188.603247)"><g><path d="M -8.09375 -9.890625 C 4.5 -38.253906 19.832031 -64.472656 37.90625 -88.546875 L 51.015625 -75.1875 C 42.273438 -63.101562 35.125 -52.050781 29.5625 -42.03125 C 19.707031 -24.207031 12.082031 -8.953125 6.6875 3.734375 Z M -8.09375 -9.890625 "/></g></g></g><g fill="#ff5055" fill-opacity="0.302"><g transform="translate(567.896108, 188.603247)"><g><path d="M 1.40625 -10.03125 C 6.632812 -23.050781 12.351562 -34.507812 18.5625 -44.40625 C 24.78125 -54.300781 30.671875 -63.101562 36.234375 -70.8125 C 25.953125 -74.070312 16.914062 -76.6875 9.125 -78.65625 L 18.640625 -93.4375 C 37.484375 -89.832031 59.15625 -83.273438 83.65625 -73.765625 L 74.796875 -56.03125 C 61.429688 -61.601562 49.863281 -66.101562 40.09375 -69.53125 L 51.015625 -59.765625 C 41.160156 -46.398438 32.378906 -31.363281 24.671875 -14.65625 C 22.015625 -9.082031 19.273438 -2.953125 16.453125 3.734375 Z M 1.40625 -10.03125 "/></g></g></g><g fill="#ff5055" fill-opacity="0.302"><g transform="translate(641.909897, 188.603247)"><g><path d="M 43.828125 -23.140625 C 37.484375 -27.242188 31.695312 -30.710938 26.46875 -33.546875 C 19.1875 -19.660156 13.234375 -7.234375 8.609375 3.734375 L -6.421875 -10.03125 C -2.140625 -19.539062 3.382812 -30.160156 10.15625 -41.890625 L 0 -46.78125 L 8.734375 -61.8125 L 19.015625 -56.9375 C 26.898438 -69.78125 33.96875 -80.1875 40.21875 -88.15625 L 54.109375 -75.703125 C 50.597656 -71.066406 44.425781 -62.023438 35.59375 -48.578125 C 41.082031 -45.492188 46.65625 -42.195312 52.3125 -38.6875 C 64.8125 -60.1875 75.003906 -75.90625 82.890625 -85.84375 L 96.765625 -73.375 C 86.660156 -59.757812 76.9375 -44.726562 67.59375 -28.28125 L 78.515625 -20.171875 L 68.5 -5.53125 L 59.375 -12.46875 C 55.6875 -5.1875 52.726562 1.453125 50.5 7.453125 L 35.59375 -6.296875 C 37.65625 -10.921875 40.398438 -16.535156 43.828125 -23.140625 Z M 43.828125 -23.140625 "/></g></g></g><g fill="#ff5055" fill-opacity="0.502"><g transform="translate(31.270257, 182.923564)"><g><path d="M -8.484375 -9.640625 C -2.742188 -22.316406 2.394531 -32.382812 6.9375 -39.84375 C 14.3125 -52.09375 21.976562 -62.929688 29.9375 -72.359375 C 24.03125 -73.378906 18.722656 -73.890625 14.015625 -73.890625 L 19.53125 -89.1875 C 35.644531 -88.675781 49.65625 -86.578125 61.5625 -82.890625 C 66.007812 -81.523438 70.503906 -79.851562 75.046875 -77.875 L 85.078125 -55.390625 C 79.160156 -46.992188 71.597656 -39.734375 62.390625 -33.609375 C 53.179688 -27.484375 43.222656 -22.960938 32.515625 -20.046875 L 24.03125 -32.125 C 17.351562 -20.90625 11.398438 -8.910156 6.171875 3.859375 Z M 25.953125 -35.34375 C 44.035156 -41.59375 57.617188 -50.203125 66.703125 -61.171875 C 58.554688 -65.453125 47.628906 -68.96875 33.921875 -71.71875 L 44.984375 -62.59375 C 38.128906 -53.9375 31.785156 -44.851562 25.953125 -35.34375 Z M 25.953125 -35.34375 "/></g></g></g><g fill="#ff5055" fill-opacity="0.502"><g transform="translate(117.876678, 182.923564)"><g><path d="M 16.0625 -18 C 24.976562 -16.113281 36.375 -14.484375 50.25 -13.109375 L 44.71875 4.75 C 32.976562 3.726562 24.5625 2.742188 19.46875 1.796875 C 14.375 0.859375 10.367188 0.0859375 7.453125 -0.515625 L -7.96875 -14.515625 C 2.488281 -36.285156 17.867188 -60.960938 38.171875 -88.546875 L 51.40625 -75.1875 C 40.1875 -59.757812 28.40625 -40.695312 16.0625 -18 Z M 16.0625 -18 "/></g></g></g><g fill="#ff5055" fill-opacity="0.502"><g transform="translate(183.409713, 182.923564)"><g><path d="M 25.953125 -32.90625 C 16.441406 -20.738281 8.945312 -8.523438 3.46875 3.734375 L -10.53125 -9.25 C -4.96875 -19.707031 2.351562 -30.632812 11.4375 -42.03125 L 3.734375 -46.390625 L 14.78125 -60.28125 L 23.140625 -55.640625 C 33.585938 -66.785156 43.695312 -76.039062 53.46875 -83.40625 L 62.96875 -74.796875 C 64.257812 -80.109375 65.289062 -85.332031 66.0625 -90.46875 L 82.125 -76.59375 C 77.070312 -50.894531 66.832031 -23.347656 51.40625 6.046875 L 36.75 -7.328125 C 39.5 -12.296875 41.472656 -15.9375 42.671875 -18.25 C 37.953125 -23.476562 32.378906 -28.363281 25.953125 -32.90625 Z M 37.140625 -46.015625 C 41.765625 -42.492188 46.003906 -38.679688 49.859375 -34.578125 C 55.085938 -47.597656 58.945312 -59.035156 61.4375 -68.890625 C 53.894531 -62.972656 45.796875 -55.347656 37.140625 -46.015625 Z M 37.140625 -46.015625 "/></g></g></g><g fill="#ff5055" fill-opacity="0.502"><g transform="translate(271.558084, 182.923564)"><g><path d="M 31.484375 -45.359375 C 45.023438 -57.179688 56.9375 -70.460938 67.21875 -85.203125 L 81.609375 -71.453125 C 65.671875 -51.234375 48.960938 -35.8125 31.484375 -25.1875 C 26.773438 -17.90625 22.148438 -7.753906 17.609375 5.265625 L 1.671875 -8.484375 C 5.265625 -17.472656 7.851562 -23.40625 9.4375 -26.28125 C 11.03125 -29.15625 12.679688 -31.960938 14.390625 -34.703125 C 12.421875 -51.835938 14.007812 -71.582031 19.15625 -93.9375 L 36.375 -78.140625 C 33.457031 -66.742188 31.828125 -55.816406 31.484375 -45.359375 Z M 31.484375 -45.359375 "/></g></g></g><g fill="#ff5055" fill-opacity="0.502"><g transform="translate(344.286921, 182.923564)"><g/></g></g><g fill="#ff5055" fill-opacity="0.502"><g transform="translate(390.80252, 182.923564)"><g><path d="M 64.265625 -14.78125 C 82.679688 -29.851562 98.144531 -51.398438 110.65625 -79.421875 L 124.65625 -66.578125 C 118.226562 -51.753906 109.617188 -37.914062 98.828125 -25.0625 C 88.035156 -12.207031 76.34375 -1.835938 63.75 6.046875 L 46.78125 -9 C 47.550781 -11.820312 48.75 -15.929688 50.375 -21.328125 C 43.695312 -13.617188 37.1875 -7.148438 30.84375 -1.921875 C 28.613281 -0.0351562 26.300781 1.847656 23.90625 3.734375 L 4.625 -13.625 C 8.65625 -33.675781 15.765625 -51.96875 25.953125 -68.5 C 21.753906 -66.53125 17.046875 -64.085938 11.828125 -61.171875 L 5.53125 -75.953125 C 14.269531 -80.921875 20.710938 -84.28125 24.859375 -86.03125 C 29.015625 -87.789062 32.640625 -89.1875 35.734375 -90.21875 L 50.125 -75.828125 C 37.875 -56.722656 29.175781 -37.488281 24.03125 -18.125 C 42.019531 -33.195312 59.023438 -55.429688 75.046875 -84.828125 L 88.421875 -72.484375 L 86.109375 -68.234375 C 79.847656 -56.671875 75.4375 -47.632812 72.875 -41.125 C 69.445312 -32.125 66.578125 -23.34375 64.265625 -14.78125 Z M 64.265625 -14.78125 "/></g></g></g><g fill="#ff5055" fill-opacity="0.502"><g transform="translate(515.957808, 182.923564)"><g><path d="M -8.09375 -9.890625 C 4.5 -38.253906 19.832031 -64.472656 37.90625 -88.546875 L 51.015625 -75.1875 C 42.273438 -63.101562 35.125 -52.050781 29.5625 -42.03125 C 19.707031 -24.207031 12.082031 -8.953125 6.6875 3.734375 Z M -8.09375 -9.890625 "/></g></g></g><g fill="#ff5055" fill-opacity="0.502"><g transform="translate(562.216431, 182.923564)"><g><path d="M 1.40625 -10.03125 C 6.632812 -23.050781 12.351562 -34.507812 18.5625 -44.40625 C 24.78125 -54.300781 30.671875 -63.101562 36.234375 -70.8125 C 25.953125 -74.070312 16.914062 -76.6875 9.125 -78.65625 L 18.640625 -93.4375 C 37.484375 -89.832031 59.15625 -83.273438 83.65625 -73.765625 L 74.796875 -56.03125 C 61.429688 -61.601562 49.863281 -66.101562 40.09375 -69.53125 L 51.015625 -59.765625 C 41.160156 -46.398438 32.378906 -31.363281 24.671875 -14.65625 C 22.015625 -9.082031 19.273438 -2.953125 16.453125 3.734375 Z M 1.40625 -10.03125 "/></g></g></g><g fill="#ff5055" fill-opacity="0.502"><g transform="translate(636.23022, 182.923564)"><g><path d="M 43.828125 -23.140625 C 37.484375 -27.242188 31.695312 -30.710938 26.46875 -33.546875 C 19.1875 -19.660156 13.234375 -7.234375 8.609375 3.734375 L -6.421875 -10.03125 C -2.140625 -19.539062 3.382812 -30.160156 10.15625 -41.890625 L 0 -46.78125 L 8.734375 -61.8125 L 19.015625 -56.9375 C 26.898438 -69.78125 33.96875 -80.1875 40.21875 -88.15625 L 54.109375 -75.703125 C 50.597656 -71.066406 44.425781 -62.023438 35.59375 -48.578125 C 41.082031 -45.492188 46.65625 -42.195312 52.3125 -38.6875 C 64.8125 -60.1875 75.003906 -75.90625 82.890625 -85.84375 L 96.765625 -73.375 C 86.660156 -59.757812 76.9375 -44.726562 67.59375 -28.28125 L 78.515625 -20.171875 L 68.5 -5.53125 L 59.375 -12.46875 C 55.6875 -5.1875 52.726562 1.453125 50.5 7.453125 L 35.59375 -6.296875 C 37.65625 -10.921875 40.398438 -16.535156 43.828125 -23.140625 Z M 43.828125 -23.140625 "/></g></g></g><g fill="#ffd200" fill-opacity="1"><g transform="translate(25.59058, 177.24389)"><g><path d="M -8.484375 -9.640625 C -2.742188 -22.316406 2.394531 -32.382812 6.9375 -39.84375 C 14.3125 -52.09375 21.976562 -62.929688 29.9375 -72.359375 C 24.03125 -73.378906 18.722656 -73.890625 14.015625 -73.890625 L 19.53125 -89.1875 C 35.644531 -88.675781 49.65625 -86.578125 61.5625 -82.890625 C 66.007812 -81.523438 70.503906 -79.851562 75.046875 -77.875 L 85.078125 -55.390625 C 79.160156 -46.992188 71.597656 -39.734375 62.390625 -33.609375 C 53.179688 -27.484375 43.222656 -22.960938 32.515625 -20.046875 L 24.03125 -32.125 C 17.351562 -20.90625 11.398438 -8.910156 6.171875 3.859375 Z M 25.953125 -35.34375 C 44.035156 -41.59375 57.617188 -50.203125 66.703125 -61.171875 C 58.554688 -65.453125 47.628906 -68.96875 33.921875 -71.71875 L 44.984375 -62.59375 C 38.128906 -53.9375 31.785156 -44.851562 25.953125 -35.34375 Z M 25.953125 -35.34375 "/></g></g></g><g fill="#ffd200" fill-opacity="1"><g transform="translate(112.197001, 177.24389)"><g><path d="M 16.0625 -18 C 24.976562 -16.113281 36.375 -14.484375 50.25 -13.109375 L 44.71875 4.75 C 32.976562 3.726562 24.5625 2.742188 19.46875 1.796875 C 14.375 0.859375 10.367188 0.0859375 7.453125 -0.515625 L -7.96875 -14.515625 C 2.488281 -36.285156 17.867188 -60.960938 38.171875 -88.546875 L 51.40625 -75.1875 C 40.1875 -59.757812 28.40625 -40.695312 16.0625 -18 Z M 16.0625 -18 "/></g></g></g><g fill="#ffd200" fill-opacity="1"><g transform="translate(177.730036, 177.24389)"><g><path d="M 25.953125 -32.90625 C 16.441406 -20.738281 8.945312 -8.523438 3.46875 3.734375 L -10.53125 -9.25 C -4.96875 -19.707031 2.351562 -30.632812 11.4375 -42.03125 L 3.734375 -46.390625 L 14.78125 -60.28125 L 23.140625 -55.640625 C 33.585938 -66.785156 43.695312 -76.039062 53.46875 -83.40625 L 62.96875 -74.796875 C 64.257812 -80.109375 65.289062 -85.332031 66.0625 -90.46875 L 82.125 -76.59375 C 77.070312 -50.894531 66.832031 -23.347656 51.40625 6.046875 L 36.75 -7.328125 C 39.5 -12.296875 41.472656 -15.9375 42.671875 -18.25 C 37.953125 -23.476562 32.378906 -28.363281 25.953125 -32.90625 Z M 37.140625 -46.015625 C 41.765625 -42.492188 46.003906 -38.679688 49.859375 -34.578125 C 55.085938 -47.597656 58.945312 -59.035156 61.4375 -68.890625 C 53.894531 -62.972656 45.796875 -55.347656 37.140625 -46.015625 Z M 37.140625 -46.015625 "/></g></g></g><g fill="#ffd200" fill-opacity="1"><g transform="translate(265.878407, 177.24389)"><g><path d="M 31.484375 -45.359375 C 45.023438 -57.179688 56.9375 -70.460938 67.21875 -85.203125 L 81.609375 -71.453125 C 65.671875 -51.234375 48.960938 -35.8125 31.484375 -25.1875 C 26.773438 -17.90625 22.148438 -7.753906 17.609375 5.265625 L 1.671875 -8.484375 C 5.265625 -17.472656 7.851562 -23.40625 9.4375 -26.28125 C 11.03125 -29.15625 12.679688 -31.960938 14.390625 -34.703125 C 12.421875 -51.835938 14.007812 -71.582031 19.15625 -93.9375 L 36.375 -78.140625 C 33.457031 -66.742188 31.828125 -55.816406 31.484375 -45.359375 Z M 31.484375 -45.359375 "/></g></g></g><g fill="#ffd200" fill-opacity="1"><g transform="translate(338.607243, 177.24389)"><g/></g></g><g fill="#ffd200" fill-opacity="1"><g transform="translate(385.122842, 177.24389)"><g><path d="M 64.265625 -14.78125 C 82.679688 -29.851562 98.144531 -51.398438 110.65625 -79.421875 L 124.65625 -66.578125 C 118.226562 -51.753906 109.617188 -37.914062 98.828125 -25.0625 C 88.035156 -12.207031 76.34375 -1.835938 63.75 6.046875 L 46.78125 -9 C 47.550781 -11.820312 48.75 -15.929688 50.375 -21.328125 C 43.695312 -13.617188 37.1875 -7.148438 30.84375 -1.921875 C 28.613281 -0.0351562 26.300781 1.847656 23.90625 3.734375 L 4.625 -13.625 C 8.65625 -33.675781 15.765625 -51.96875 25.953125 -68.5 C 21.753906 -66.53125 17.046875 -64.085938 11.828125 -61.171875 L 5.53125 -75.953125 C 14.269531 -80.921875 20.710938 -84.28125 24.859375 -86.03125 C 29.015625 -87.789062 32.640625 -89.1875 35.734375 -90.21875 L 50.125 -75.828125 C 37.875 -56.722656 29.175781 -37.488281 24.03125 -18.125 C 42.019531 -33.195312 59.023438 -55.429688 75.046875 -84.828125 L 88.421875 -72.484375 L 86.109375 -68.234375 C 79.847656 -56.671875 75.4375 -47.632812 72.875 -41.125 C 69.445312 -32.125 66.578125 -23.34375 64.265625 -14.78125 Z M 64.265625 -14.78125 "/></g></g></g><g fill="#ffd200" fill-opacity="1"><g transform="translate(510.278131, 177.24389)"><g><path d="M -8.09375 -9.890625 C 4.5 -38.253906 19.832031 -64.472656 37.90625 -88.546875 L 51.015625 -75.1875 C 42.273438 -63.101562 35.125 -52.050781 29.5625 -42.03125 C 19.707031 -24.207031 12.082031 -8.953125 6.6875 3.734375 Z M -8.09375 -9.890625 "/></g></g></g><g fill="#ffd200" fill-opacity="1"><g transform="translate(556.536754, 177.24389)"><g><path d="M 1.40625 -10.03125 C 6.632812 -23.050781 12.351562 -34.507812 18.5625 -44.40625 C 24.78125 -54.300781 30.671875 -63.101562 36.234375 -70.8125 C 25.953125 -74.070312 16.914062 -76.6875 9.125 -78.65625 L 18.640625 -93.4375 C 37.484375 -89.832031 59.15625 -83.273438 83.65625 -73.765625 L 74.796875 -56.03125 C 61.429688 -61.601562 49.863281 -66.101562 40.09375 -69.53125 L 51.015625 -59.765625 C 41.160156 -46.398438 32.378906 -31.363281 24.671875 -14.65625 C 22.015625 -9.082031 19.273438 -2.953125 16.453125 3.734375 Z M 1.40625 -10.03125 "/></g></g></g><g fill="#ffd200" fill-opacity="1"><g transform="translate(630.550543, 177.24389)"><g><path d="M 43.828125 -23.140625 C 37.484375 -27.242188 31.695312 -30.710938 26.46875 -33.546875 C 19.1875 -19.660156 13.234375 -7.234375 8.609375 3.734375 L -6.421875 -10.03125 C -2.140625 -19.539062 3.382812 -30.160156 10.15625 -41.890625 L 0 -46.78125 L 8.734375 -61.8125 L 19.015625 -56.9375 C 26.898438 -69.78125 33.96875 -80.1875 40.21875 -88.15625 L 54.109375 -75.703125 C 50.597656 -71.066406 44.425781 -62.023438 35.59375 -48.578125 C 41.082031 -45.492188 46.65625 -42.195312 52.3125 -38.6875 C 64.8125 -60.1875 75.003906 -75.90625 82.890625 -85.84375 L 96.765625 -73.375 C 86.660156 -59.757812 76.9375 -44.726562 67.59375 -28.28125 L 78.515625 -20.171875 L 68.5 -5.53125 L 59.375 -12.46875 C 55.6875 -5.1875 52.726562 1.453125 50.5 7.453125 L 35.59375 -6.296875 C 37.65625 -10.921875 40.398438 -16.535156 43.828125 -23.140625 Z M 43.828125 -23.140625 "/></g></g></g><g fill="#ff5055" fill-opacity="0.302"><g transform="translate(72.81625, 311.912233)"><g><path d="M 16.328125 -15.9375 C 29.859375 -16.875 42.191406 -20.085938 53.328125 -25.578125 L 58.34375 -10.921875 C 44.289062 -2.265625 28.054688 2.742188 9.640625 4.109375 L -6.6875 -11.046875 C -2.832031 -27.835938 4.019531 -43.046875 13.875 -56.671875 C 25.101562 -72.015625 38.726562 -83.066406 54.75 -89.828125 L 79.171875 -72.21875 C 76.941406 -64.9375 72.910156 -56.5 67.078125 -46.90625 C 65.453125 -44.25 63.910156 -41.894531 62.453125 -39.84375 L 47.546875 -48.0625 C 53.378906 -58.082031 57.28125 -66.519531 59.25 -73.375 C 48.539062 -68.070312 39.070312 -59.9375 30.84375 -48.96875 C 22.957031 -38.257812 18.117188 -27.25 16.328125 -15.9375 Z M 16.328125 -15.9375 "/></g></g></g><g fill="#ff5055" fill-opacity="0.302"><g transform="translate(150.941917, 311.912233)"><g><path d="M 43.828125 -23.140625 C 37.484375 -27.242188 31.695312 -30.710938 26.46875 -33.546875 C 19.1875 -19.660156 13.234375 -7.234375 8.609375 3.734375 L -6.421875 -10.03125 C -2.140625 -19.539062 3.382812 -30.160156 10.15625 -41.890625 L 0 -46.78125 L 8.734375 -61.8125 L 19.015625 -56.9375 C 26.898438 -69.78125 33.96875 -80.1875 40.21875 -88.15625 L 54.109375 -75.703125 C 50.597656 -71.066406 44.425781 -62.023438 35.59375 -48.578125 C 41.082031 -45.492188 46.65625 -42.195312 52.3125 -38.6875 C 64.8125 -60.1875 75.003906 -75.90625 82.890625 -85.84375 L 96.765625 -73.375 C 86.660156 -59.757812 76.9375 -44.726562 67.59375 -28.28125 L 78.515625 -20.171875 L 68.5 -5.53125 L 59.375 -12.46875 C 55.6875 -5.1875 52.726562 1.453125 50.5 7.453125 L 35.59375 -6.296875 C 37.65625 -10.921875 40.398438 -16.535156 43.828125 -23.140625 Z M 43.828125 -23.140625 "/></g></g></g><g fill="#ff5055" fill-opacity="0.302"><g transform="translate(244.744115, 311.912233)"><g><path d="M 14.90625 -17.09375 C 26.5625 -14.519531 39.628906 -12.976562 54.109375 -12.46875 L 48.84375 4.109375 C 35.90625 3.859375 22.195312 2.144531 7.71875 -1.03125 L -6.9375 -14.390625 C -0.9375 -28.179688 7.972656 -43.5625 19.796875 -60.53125 C 23.128906 -65.414062 26.382812 -69.785156 29.5625 -73.640625 C 23.5625 -74.578125 18.632812 -75.046875 14.78125 -75.046875 L 20.8125 -90.984375 C 44.894531 -90.210938 66.273438 -85.84375 84.953125 -77.875 L 77.625 -59.125 C 64.6875 -65.289062 49.992188 -69.914062 33.546875 -73 L 44.59375 -63.875 C 40.476562 -58.90625 36.753906 -53.847656 33.421875 -48.703125 C 41.898438 -46.816406 50.335938 -45.488281 58.734375 -44.71875 L 52.953125 -28.40625 C 39.835938 -30.71875 30.238281 -32.6875 24.15625 -34.3125 C 20.90625 -28.914062 17.820312 -23.175781 14.90625 -17.09375 Z M 14.90625 -17.09375 "/></g></g></g><g fill="#ff5055" fill-opacity="0.302"><g transform="translate(322.741281, 311.912233)"><g><path d="M -9.890625 -9.765625 C -3.128906 -24.671875 6.460938 -41.078125 18.890625 -58.984375 C 22.578125 -64.296875 26.003906 -68.878906 29.171875 -72.734375 C 23.171875 -73.679688 18.242188 -74.15625 14.390625 -74.15625 L 20.3125 -90.09375 C 43.1875 -89.320312 63.960938 -85.207031 82.640625 -77.75 L 75.3125 -59.125 C 62.882812 -64.601562 48.832031 -68.925781 33.15625 -72.09375 L 44.203125 -62.96875 C 40.179688 -57.75 35.859375 -51.796875 31.234375 -45.109375 C 36.453125 -44.078125 44.929688 -41.722656 56.671875 -38.046875 L 50.375 -22.359375 L 34.703125 -27.5 C 30.753906 -28.695312 26.597656 -29.851562 22.234375 -30.96875 C 14.867188 -18.550781 9.039062 -6.984375 4.75 3.734375 Z M -9.890625 -9.765625 "/></g></g></g><g fill="#ff5055" fill-opacity="0.302"><g transform="translate(397.783045, 311.912233)"><g/></g></g><g fill="#ff5055" fill-opacity="0.302"><g transform="translate(444.298644, 311.912233)"><g><path d="M 1.40625 -10.03125 C 6.632812 -23.050781 12.351562 -34.507812 18.5625 -44.40625 C 24.78125 -54.300781 30.671875 -63.101562 36.234375 -70.8125 C 25.953125 -74.070312 16.914062 -76.6875 9.125 -78.65625 L 18.640625 -93.4375 C 37.484375 -89.832031 59.15625 -83.273438 83.65625 -73.765625 L 74.796875 -56.03125 C 61.429688 -61.601562 49.863281 -66.101562 40.09375 -69.53125 L 51.015625 -59.765625 C 41.160156 -46.398438 32.378906 -31.363281 24.671875 -14.65625 C 22.015625 -9.082031 19.273438 -2.953125 16.453125 3.734375 Z M 1.40625 -10.03125 "/></g></g></g><g fill="#ff5055" fill-opacity="0.302"><g transform="translate(518.312457, 311.912233)"><g><path d="M 78.015625 -49.609375 C 68.929688 -57.742188 60.445312 -64.210938 52.5625 -69.015625 C 43.820312 -64.472656 36.066406 -56.757812 29.296875 -45.875 C 22.273438 -34.65625 18.335938 -23.257812 17.484375 -11.6875 C 30.929688 -15.375 42.410156 -24.5 51.921875 -39.0625 C 55.085938 -44.03125 57.875 -49.6875 60.28125 -56.03125 L 78.015625 -49.609375 C 72.273438 -33.503906 64.773438 -21.035156 55.515625 -12.203125 C 45.492188 -2.609375 32.554688 3.6875 16.703125 6.6875 L -2.3125 -10.796875 C 0.164062 -37.179688 11.003906 -58.429688 30.203125 -74.546875 C 36.878906 -80.191406 44.71875 -85.113281 53.71875 -89.3125 C 65.113281 -83.488281 75.140625 -76.035156 83.796875 -66.953125 Z M 78.015625 -49.609375 "/></g></g></g><g fill="#ff5055" fill-opacity="0.302"><g transform="translate(606.460851, 311.912233)"><g><path d="M -9 -9.890625 C -4.113281 -21.628906 2.953125 -35.550781 12.203125 -51.65625 C 20.515625 -66.226562 29 -79.164062 37.65625 -90.46875 L 50.375 -78.015625 C 50.550781 -63.703125 51.320312 -48.664062 52.6875 -32.90625 C 61.851562 -52.175781 72.175781 -69.695312 83.65625 -85.46875 L 96.765625 -73.375 C 82.722656 -53.757812 69.316406 -28.875 56.546875 1.28125 L 39.453125 4.75 C 36.710938 -15.46875 34.914062 -34.742188 34.0625 -53.078125 C 22.570312 -33.796875 13.1875 -14.859375 5.90625 3.734375 Z M -9 -9.890625 "/></g></g></g><g fill="#ff5055" fill-opacity="0.502"><g transform="translate(67.136573, 306.23255)"><g><path d="M 16.328125 -15.9375 C 29.859375 -16.875 42.191406 -20.085938 53.328125 -25.578125 L 58.34375 -10.921875 C 44.289062 -2.265625 28.054688 2.742188 9.640625 4.109375 L -6.6875 -11.046875 C -2.832031 -27.835938 4.019531 -43.046875 13.875 -56.671875 C 25.101562 -72.015625 38.726562 -83.066406 54.75 -89.828125 L 79.171875 -72.21875 C 76.941406 -64.9375 72.910156 -56.5 67.078125 -46.90625 C 65.453125 -44.25 63.910156 -41.894531 62.453125 -39.84375 L 47.546875 -48.0625 C 53.378906 -58.082031 57.28125 -66.519531 59.25 -73.375 C 48.539062 -68.070312 39.070312 -59.9375 30.84375 -48.96875 C 22.957031 -38.257812 18.117188 -27.25 16.328125 -15.9375 Z M 16.328125 -15.9375 "/></g></g></g><g fill="#ff5055" fill-opacity="0.502"><g transform="translate(145.262239, 306.23255)"><g><path d="M 43.828125 -23.140625 C 37.484375 -27.242188 31.695312 -30.710938 26.46875 -33.546875 C 19.1875 -19.660156 13.234375 -7.234375 8.609375 3.734375 L -6.421875 -10.03125 C -2.140625 -19.539062 3.382812 -30.160156 10.15625 -41.890625 L 0 -46.78125 L 8.734375 -61.8125 L 19.015625 -56.9375 C 26.898438 -69.78125 33.96875 -80.1875 40.21875 -88.15625 L 54.109375 -75.703125 C 50.597656 -71.066406 44.425781 -62.023438 35.59375 -48.578125 C 41.082031 -45.492188 46.65625 -42.195312 52.3125 -38.6875 C 64.8125 -60.1875 75.003906 -75.90625 82.890625 -85.84375 L 96.765625 -73.375 C 86.660156 -59.757812 76.9375 -44.726562 67.59375 -28.28125 L 78.515625 -20.171875 L 68.5 -5.53125 L 59.375 -12.46875 C 55.6875 -5.1875 52.726562 1.453125 50.5 7.453125 L 35.59375 -6.296875 C 37.65625 -10.921875 40.398438 -16.535156 43.828125 -23.140625 Z M 43.828125 -23.140625 "/></g></g></g><g fill="#ff5055" fill-opacity="0.502"><g transform="translate(239.064438, 306.23255)"><g><path d="M 14.90625 -17.09375 C 26.5625 -14.519531 39.628906 -12.976562 54.109375 -12.46875 L 48.84375 4.109375 C 35.90625 3.859375 22.195312 2.144531 7.71875 -1.03125 L -6.9375 -14.390625 C -0.9375 -28.179688 7.972656 -43.5625 19.796875 -60.53125 C 23.128906 -65.414062 26.382812 -69.785156 29.5625 -73.640625 C 23.5625 -74.578125 18.632812 -75.046875 14.78125 -75.046875 L 20.8125 -90.984375 C 44.894531 -90.210938 66.273438 -85.84375 84.953125 -77.875 L 77.625 -59.125 C 64.6875 -65.289062 49.992188 -69.914062 33.546875 -73 L 44.59375 -63.875 C 40.476562 -58.90625 36.753906 -53.847656 33.421875 -48.703125 C 41.898438 -46.816406 50.335938 -45.488281 58.734375 -44.71875 L 52.953125 -28.40625 C 39.835938 -30.71875 30.238281 -32.6875 24.15625 -34.3125 C 20.90625 -28.914062 17.820312 -23.175781 14.90625 -17.09375 Z M 14.90625 -17.09375 "/></g></g></g><g fill="#ff5055" fill-opacity="0.502"><g transform="translate(317.061604, 306.23255)"><g><path d="M -9.890625 -9.765625 C -3.128906 -24.671875 6.460938 -41.078125 18.890625 -58.984375 C 22.578125 -64.296875 26.003906 -68.878906 29.171875 -72.734375 C 23.171875 -73.679688 18.242188 -74.15625 14.390625 -74.15625 L 20.3125 -90.09375 C 43.1875 -89.320312 63.960938 -85.207031 82.640625 -77.75 L 75.3125 -59.125 C 62.882812 -64.601562 48.832031 -68.925781 33.15625 -72.09375 L 44.203125 -62.96875 C 40.179688 -57.75 35.859375 -51.796875 31.234375 -45.109375 C 36.453125 -44.078125 44.929688 -41.722656 56.671875 -38.046875 L 50.375 -22.359375 L 34.703125 -27.5 C 30.753906 -28.695312 26.597656 -29.851562 22.234375 -30.96875 C 14.867188 -18.550781 9.039062 -6.984375 4.75 3.734375 Z M -9.890625 -9.765625 "/></g></g></g><g fill="#ff5055" fill-opacity="0.502"><g transform="translate(392.103368, 306.23255)"><g/></g></g><g fill="#ff5055" fill-opacity="0.502"><g transform="translate(438.618967, 306.23255)"><g><path d="M 1.40625 -10.03125 C 6.632812 -23.050781 12.351562 -34.507812 18.5625 -44.40625 C 24.78125 -54.300781 30.671875 -63.101562 36.234375 -70.8125 C 25.953125 -74.070312 16.914062 -76.6875 9.125 -78.65625 L 18.640625 -93.4375 C 37.484375 -89.832031 59.15625 -83.273438 83.65625 -73.765625 L 74.796875 -56.03125 C 61.429688 -61.601562 49.863281 -66.101562 40.09375 -69.53125 L 51.015625 -59.765625 C 41.160156 -46.398438 32.378906 -31.363281 24.671875 -14.65625 C 22.015625 -9.082031 19.273438 -2.953125 16.453125 3.734375 Z M 1.40625 -10.03125 "/></g></g></g><g fill="#ff5055" fill-opacity="0.502"><g transform="translate(512.63278, 306.23255)"><g><path d="M 78.015625 -49.609375 C 68.929688 -57.742188 60.445312 -64.210938 52.5625 -69.015625 C 43.820312 -64.472656 36.066406 -56.757812 29.296875 -45.875 C 22.273438 -34.65625 18.335938 -23.257812 17.484375 -11.6875 C 30.929688 -15.375 42.410156 -24.5 51.921875 -39.0625 C 55.085938 -44.03125 57.875 -49.6875 60.28125 -56.03125 L 78.015625 -49.609375 C 72.273438 -33.503906 64.773438 -21.035156 55.515625 -12.203125 C 45.492188 -2.609375 32.554688 3.6875 16.703125 6.6875 L -2.3125 -10.796875 C 0.164062 -37.179688 11.003906 -58.429688 30.203125 -74.546875 C 36.878906 -80.191406 44.71875 -85.113281 53.71875 -89.3125 C 65.113281 -83.488281 75.140625 -76.035156 83.796875 -66.953125 Z M 78.015625 -49.609375 "/></g></g></g><g fill="#ff5055" fill-opacity="0.502"><g transform="translate(600.781174, 306.23255)"><g><path d="M -9 -9.890625 C -4.113281 -21.628906 2.953125 -35.550781 12.203125 -51.65625 C 20.515625 -66.226562 29 -79.164062 37.65625 -90.46875 L 50.375 -78.015625 C 50.550781 -63.703125 51.320312 -48.664062 52.6875 -32.90625 C 61.851562 -52.175781 72.175781 -69.695312 83.65625 -85.46875 L 96.765625 -73.375 C 82.722656 -53.757812 69.316406 -28.875 56.546875 1.28125 L 39.453125 4.75 C 36.710938 -15.46875 34.914062 -34.742188 34.0625 -53.078125 C 22.570312 -33.796875 13.1875 -14.859375 5.90625 3.734375 Z M -9 -9.890625 "/></g></g></g><g fill="#ffd200" fill-opacity="1"><g transform="translate(61.456896, 300.552876)"><g><path d="M 16.328125 -15.9375 C 29.859375 -16.875 42.191406 -20.085938 53.328125 -25.578125 L 58.34375 -10.921875 C 44.289062 -2.265625 28.054688 2.742188 9.640625 4.109375 L -6.6875 -11.046875 C -2.832031 -27.835938 4.019531 -43.046875 13.875 -56.671875 C 25.101562 -72.015625 38.726562 -83.066406 54.75 -89.828125 L 79.171875 -72.21875 C 76.941406 -64.9375 72.910156 -56.5 67.078125 -46.90625 C 65.453125 -44.25 63.910156 -41.894531 62.453125 -39.84375 L 47.546875 -48.0625 C 53.378906 -58.082031 57.28125 -66.519531 59.25 -73.375 C 48.539062 -68.070312 39.070312 -59.9375 30.84375 -48.96875 C 22.957031 -38.257812 18.117188 -27.25 16.328125 -15.9375 Z M 16.328125 -15.9375 "/></g></g></g><g fill="#ffd200" fill-opacity="1"><g transform="translate(139.582562, 300.552876)"><g><path d="M 43.828125 -23.140625 C 37.484375 -27.242188 31.695312 -30.710938 26.46875 -33.546875 C 19.1875 -19.660156 13.234375 -7.234375 8.609375 3.734375 L -6.421875 -10.03125 C -2.140625 -19.539062 3.382812 -30.160156 10.15625 -41.890625 L 0 -46.78125 L 8.734375 -61.8125 L 19.015625 -56.9375 C 26.898438 -69.78125 33.96875 -80.1875 40.21875 -88.15625 L 54.109375 -75.703125 C 50.597656 -71.066406 44.425781 -62.023438 35.59375 -48.578125 C 41.082031 -45.492188 46.65625 -42.195312 52.3125 -38.6875 C 64.8125 -60.1875 75.003906 -75.90625 82.890625 -85.84375 L 96.765625 -73.375 C 86.660156 -59.757812 76.9375 -44.726562 67.59375 -28.28125 L 78.515625 -20.171875 L 68.5 -5.53125 L 59.375 -12.46875 C 55.6875 -5.1875 52.726562 1.453125 50.5 7.453125 L 35.59375 -6.296875 C 37.65625 -10.921875 40.398438 -16.535156 43.828125 -23.140625 Z M 43.828125 -23.140625 "/></g></g></g><g fill="#ffd200" fill-opacity="1"><g transform="translate(233.384761, 300.552876)"><g><path d="M 14.90625 -17.09375 C 26.5625 -14.519531 39.628906 -12.976562 54.109375 -12.46875 L 48.84375 4.109375 C 35.90625 3.859375 22.195312 2.144531 7.71875 -1.03125 L -6.9375 -14.390625 C -0.9375 -28.179688 7.972656 -43.5625 19.796875 -60.53125 C 23.128906 -65.414062 26.382812 -69.785156 29.5625 -73.640625 C 23.5625 -74.578125 18.632812 -75.046875 14.78125 -75.046875 L 20.8125 -90.984375 C 44.894531 -90.210938 66.273438 -85.84375 84.953125 -77.875 L 77.625 -59.125 C 64.6875 -65.289062 49.992188 -69.914062 33.546875 -73 L 44.59375 -63.875 C 40.476562 -58.90625 36.753906 -53.847656 33.421875 -48.703125 C 41.898438 -46.816406 50.335938 -45.488281 58.734375 -44.71875 L 52.953125 -28.40625 C 39.835938 -30.71875 30.238281 -32.6875 24.15625 -34.3125 C 20.90625 -28.914062 17.820312 -23.175781 14.90625 -17.09375 Z M 14.90625 -17.09375 "/></g></g></g><g fill="#ffd200" fill-opacity="1"><g transform="translate(311.381927, 300.552876)"><g><path d="M -9.890625 -9.765625 C -3.128906 -24.671875 6.460938 -41.078125 18.890625 -58.984375 C 22.578125 -64.296875 26.003906 -68.878906 29.171875 -72.734375 C 23.171875 -73.679688 18.242188 -74.15625 14.390625 -74.15625 L 20.3125 -90.09375 C 43.1875 -89.320312 63.960938 -85.207031 82.640625 -77.75 L 75.3125 -59.125 C 62.882812 -64.601562 48.832031 -68.925781 33.15625 -72.09375 L 44.203125 -62.96875 C 40.179688 -57.75 35.859375 -51.796875 31.234375 -45.109375 C 36.453125 -44.078125 44.929688 -41.722656 56.671875 -38.046875 L 50.375 -22.359375 L 34.703125 -27.5 C 30.753906 -28.695312 26.597656 -29.851562 22.234375 -30.96875 C 14.867188 -18.550781 9.039062 -6.984375 4.75 3.734375 Z M -9.890625 -9.765625 "/></g></g></g><g fill="#ffd200" fill-opacity="1"><g transform="translate(386.423691, 300.552876)"><g/></g></g><g fill="#ffd200" fill-opacity="1"><g transform="translate(432.93929, 300.552876)"><g><path d="M 1.40625 -10.03125 C 6.632812 -23.050781 12.351562 -34.507812 18.5625 -44.40625 C 24.78125 -54.300781 30.671875 -63.101562 36.234375 -70.8125 C 25.953125 -74.070312 16.914062 -76.6875 9.125 -78.65625 L 18.640625 -93.4375 C 37.484375 -89.832031 59.15625 -83.273438 83.65625 -73.765625 L 74.796875 -56.03125 C 61.429688 -61.601562 49.863281 -66.101562 40.09375 -69.53125 L 51.015625 -59.765625 C 41.160156 -46.398438 32.378906 -31.363281 24.671875 -14.65625 C 22.015625 -9.082031 19.273438 -2.953125 16.453125 3.734375 Z M 1.40625 -10.03125 "/></g></g></g><g fill="#ffd200" fill-opacity="1"><g transform="translate(506.953102, 300.552876)"><g><path d="M 78.015625 -49.609375 C 68.929688 -57.742188 60.445312 -64.210938 52.5625 -69.015625 C 43.820312 -64.472656 36.066406 -56.757812 29.296875 -45.875 C 22.273438 -34.65625 18.335938 -23.257812 17.484375 -11.6875 C 30.929688 -15.375 42.410156 -24.5 51.921875 -39.0625 C 55.085938 -44.03125 57.875 -49.6875 60.28125 -56.03125 L 78.015625 -49.609375 C 72.273438 -33.503906 64.773438 -21.035156 55.515625 -12.203125 C 45.492188 -2.609375 32.554688 3.6875 16.703125 6.6875 L -2.3125 -10.796875 C 0.164062 -37.179688 11.003906 -58.429688 30.203125 -74.546875 C 36.878906 -80.191406 44.71875 -85.113281 53.71875 -89.3125 C 65.113281 -83.488281 75.140625 -76.035156 83.796875 -66.953125 Z M 78.015625 -49.609375 "/></g></g></g><g fill="#ffd200" fill-opacity="1"><g transform="translate(595.101497, 300.552876)"><g><path d="M -9 -9.890625 C -4.113281 -21.628906 2.953125 -35.550781 12.203125 -51.65625 C 20.515625 -66.226562 29 -79.164062 37.65625 -90.46875 L 50.375 -78.015625 C 50.550781 -63.703125 51.320312 -48.664062 52.6875 -32.90625 C 61.851562 -52.175781 72.175781 -69.695312 83.65625 -85.46875 L 96.765625 -73.375 C 82.722656 -53.757812 69.316406 -28.875 56.546875 1.28125 L 39.453125 4.75 C 36.710938 -15.46875 34.914062 -34.742188 34.0625 -53.078125 C 22.570312 -33.796875 13.1875 -14.859375 5.90625 3.734375 Z M -9 -9.890625 "/></g></g></g><g fill="#000000" fill-opacity="1"><g transform="translate(158.736972, 369.085171)"><g><path d="M 57.328125 -20.140625 L 50.015625 -20.140625 L 50.015625 -4.578125 L 57.328125 -4.578125 L 57.328125 0 L 38.296875 0 L 38.296875 -4.578125 L 44.203125 -4.578125 L 44.203125 -10.453125 C 44.203125 -11.578125 44.304688 -12.914062 44.515625 -14.46875 C 44.722656 -16.019531 44.96875 -17.539062 45.25 -19.03125 L 31.28125 0.03125 L 28.109375 0.03125 L 14.296875 -18.84375 C 14.515625 -17.375 14.707031 -15.882812 14.875 -14.375 C 15.050781 -12.863281 15.140625 -11.554688 15.140625 -10.453125 L 15.140625 -4.578125 L 21.078125 -4.578125 L 21.078125 0 L 2.234375 0 L 2.234375 -4.578125 L 9.65625 -4.578125 L 9.65625 -20.140625 L 2.234375 -20.140625 L 2.234375 -24.71875 L 16.53125 -24.71875 L 29.90625 -6.265625 L 43.0625 -24.71875 L 57.328125 -24.71875 Z M 57.328125 -20.140625 "/></g></g></g><g fill="#000000" fill-opacity="1"><g transform="translate(227.751421, 369.085171)"><g><path d="M 22.734375 -20.140625 L 15.421875 -20.140625 L 15.421875 -4.578125 L 22.734375 -4.578125 L 22.734375 0 L 2.234375 0 L 2.234375 -4.578125 L 9.578125 -4.578125 L 9.578125 -20.140625 L 2.234375 -20.140625 L 2.234375 -24.71875 L 22.734375 -24.71875 Z M 22.734375 -20.140625 "/></g></g></g><g fill="#000000" fill-opacity="1"><g transform="translate(262.187696, 369.085171)"><g><path d="M 52.171875 -24.71875 L 52.171875 -20.140625 L 44.859375 -20.140625 L 44.859375 0.21875 L 41.71875 0.25 L 15.203125 -17.734375 L 15.203125 -4.578125 L 23.171875 -4.578125 L 23.171875 0 L 2.234375 0 L 2.234375 -4.578125 L 9.578125 -4.578125 L 9.578125 -20.140625 L 2.234375 -20.140625 L 2.234375 -24.71875 L 15.203125 -24.71875 L 39.53125 -8.21875 L 39.53125 -20.140625 L 32.21875 -20.140625 L 32.21875 -24.71875 Z M 52.171875 -24.71875 "/></g></g></g><g fill="#000000" fill-opacity="1"><g transform="translate(323.890319, 369.085171)"><g><path d="M 22.734375 -20.140625 L 15.421875 -20.140625 L 15.421875 -4.578125 L 22.734375 -4.578125 L 22.734375 0 L 2.234375 0 L 2.234375 -4.578125 L 9.578125 -4.578125 L 9.578125 -20.140625 L 2.234375 -20.140625 L 2.234375 -24.71875 L 22.734375 -24.71875 Z M 22.734375 -20.140625 "/></g></g></g><g fill="#000000" fill-opacity="1"><g transform="translate(358.326601, 369.085171)"><g><path d="M 21 -20.6875 C 18.550781 -20.6875 16.335938 -20.359375 14.359375 -19.703125 C 12.378906 -19.054688 10.804688 -18.113281 9.640625 -16.875 C 8.472656 -15.644531 7.890625 -14.128906 7.890625 -12.328125 C 7.890625 -10.523438 8.460938 -9.007812 9.609375 -7.78125 C 10.765625 -6.550781 12.351562 -5.625 14.375 -5 C 16.394531 -4.382812 18.703125 -4.078125 21.296875 -4.078125 C 22.929688 -4.078125 24.507812 -4.21875 26.03125 -4.5 C 27.5625 -4.789062 28.960938 -5.171875 30.234375 -5.640625 C 31.503906 -6.109375 32.570312 -6.617188 33.4375 -7.171875 L 33.4375 -9.109375 L 21.296875 -9.109375 L 21.296875 -13.40625 L 39.015625 -13.40625 L 39.015625 -4.796875 C 37.597656 -3.828125 35.960938 -2.941406 34.109375 -2.140625 C 32.265625 -1.335938 30.242188 -0.703125 28.046875 -0.234375 C 25.847656 0.234375 23.515625 0.46875 21.046875 0.46875 C 18.285156 0.46875 15.734375 0.179688 13.390625 -0.390625 C 11.046875 -0.972656 9 -1.816406 7.25 -2.921875 C 5.507812 -4.023438 4.160156 -5.363281 3.203125 -6.9375 C 2.242188 -8.507812 1.765625 -10.304688 1.765625 -12.328125 C 1.765625 -14.296875 2.21875 -16.070312 3.125 -17.65625 C 4.039062 -19.238281 5.300781 -20.59375 6.90625 -21.71875 C 8.519531 -22.851562 10.394531 -23.71875 12.53125 -24.3125 C 14.675781 -24.914062 16.984375 -25.21875 19.453125 -25.21875 C 22.316406 -25.21875 24.953125 -24.859375 27.359375 -24.140625 C 29.773438 -23.421875 31.945312 -22.316406 33.875 -20.828125 L 33.875 -24.71875 L 39.015625 -24.71875 L 39.015625 -16.5 L 35.234375 -15.78125 C 33.410156 -17.25 31.296875 -18.429688 28.890625 -19.328125 C 26.492188 -20.234375 23.863281 -20.6875 21 -20.6875 Z M 21 -20.6875 "/></g></g></g><g fill="#000000" fill-opacity="1"><g transform="translate(409.871872, 369.085171)"><g><path d="M 41.359375 -4.578125 L 48.109375 -4.578125 L 48.109375 0 L 30.265625 0 L 30.265625 -4.578125 L 34.984375 -4.578125 L 32.390625 -8.25 L 15.34375 -8.25 L 12.71875 -4.578125 L 17.515625 -4.578125 L 17.515625 0 L -0.359375 0 L -0.359375 -4.578125 L 6.375 -4.578125 L 18.484375 -20.171875 L 13.625 -20.171875 L 13.625 -24.71875 L 34.078125 -24.71875 L 34.078125 -20.171875 L 29.25 -20.171875 Z M 18.203125 -12.28125 L 29.546875 -12.28125 L 23.953125 -20.171875 L 23.8125 -20.171875 Z M 18.203125 -12.28125 "/></g></g></g><g fill="#000000" fill-opacity="1"><g transform="translate(467.072109, 369.085171)"><g><path d="M 57.328125 -20.140625 L 50.015625 -20.140625 L 50.015625 -4.578125 L 57.328125 -4.578125 L 57.328125 0 L 38.296875 0 L 38.296875 -4.578125 L 44.203125 -4.578125 L 44.203125 -10.453125 C 44.203125 -11.578125 44.304688 -12.914062 44.515625 -14.46875 C 44.722656 -16.019531 44.96875 -17.539062 45.25 -19.03125 L 31.28125 0.03125 L 28.109375 0.03125 L 14.296875 -18.84375 C 14.515625 -17.375 14.707031 -15.882812 14.875 -14.375 C 15.050781 -12.863281 15.140625 -11.554688 15.140625 -10.453125 L 15.140625 -4.578125 L 21.078125 -4.578125 L 21.078125 0 L 2.234375 0 L 2.234375 -4.578125 L 9.65625 -4.578125 L 9.65625 -20.140625 L 2.234375 -20.140625 L 2.234375 -24.71875 L 16.53125 -24.71875 L 29.90625 -6.265625 L 43.0625 -24.71875 L 57.328125 -24.71875 Z M 57.328125 -20.140625 "/></g></g></g><g fill="#000000" fill-opacity="1"><g transform="translate(536.086564, 369.085171)"><g><path d="M 41.96875 -14.734375 L 36.828125 -14.734375 L 36.828125 -20.140625 L 15.3125 -20.140625 L 15.3125 -14.515625 L 24.9375 -14.515625 L 24.9375 -17.46875 L 29.515625 -17.46875 L 29.515625 -7.3125 L 24.9375 -7.3125 L 24.9375 -10.265625 L 15.3125 -10.265625 L 15.3125 -4.578125 L 36.828125 -4.578125 L 36.828125 -9.984375 L 41.96875 -9.984375 L 41.96875 0 L 2.234375 0 L 2.234375 -4.578125 L 9.546875 -4.578125 L 9.546875 -20.140625 L 2.234375 -20.140625 L 2.234375 -24.71875 L 41.96875 -24.71875 Z M 41.96875 -14.734375 "/></g></g></g></svg>